<svg viewBox="0 0 14 14" xmlns="http://www.w3.org/2000/svg">
    <path d="M3.60238 6.42075C3.50232 6.61075 3.41226 6.85075 3.38224 7.10075L3.12206 8.94074C3.04201 9.49074 3.19211 10.0307 3.58237 10.4207C3.97263 10.8107 4.51298 10.9507 5.05334 10.8807L6.90456 10.6207C7.14472 10.5907 7.38488 10.4907 7.57501 10.4007C7.76513 10.3007 7.98528 10.1707 8.14538 10.0007L12.2881 5.86075C12.2881 5.86075 12.2981 5.85075 12.3081 5.84075L12.9886 5.16075C13.4489 4.70075 13.9092 4.08075 13.9892 3.31075C14.0693 2.50075 13.6991 1.73075 12.9886 1.01075C12.2681 0.300745 11.5076 -0.0692548 10.6871 0.0107452C9.91655 0.0907452 9.29615 0.550745 8.83584 1.01075L8.15539 1.69075C8.15539 1.69075 8.14538 1.70075 8.13538 1.71075L4.00265 5.84075C3.83253 6.01075 3.69244 6.22075 3.60238 6.42075ZM9.95658 2.13075C10.3268 1.76075 10.617 1.61075 10.8472 1.58075C11.0373 1.56075 11.3675 1.61075 11.8779 2.13075C12.3882 2.64075 12.4382 2.97075 12.4282 3.16075C12.4082 3.39075 12.2581 3.68075 11.8779 4.05075L11.5376 4.39075C10.6671 4.02075 9.9866 3.34075 9.61636 2.48075L9.95658 2.14075V2.13075ZM4.67309 9.17074L4.93326 7.32075C4.93326 7.32075 4.95327 7.23075 5.00331 7.13075C5.05334 7.03075 5.10337 6.97075 5.11338 6.96075L8.42557 3.65075C8.88587 4.45075 9.54631 5.11075 10.3468 5.56075L7.03465 8.87074C7.03465 8.87074 6.94459 8.94074 6.85453 8.99074C6.8045 9.01075 6.76447 9.03074 6.72444 9.04074C6.70443 9.04074 6.69443 9.05075 6.68442 9.05075H6.67441L4.83319 9.31075C4.77316 9.31075 4.73313 9.31075 4.71312 9.31075H4.6931C4.6931 9.31075 4.6931 9.31075 4.6931 9.30075C4.6931 9.28074 4.6831 9.25074 4.6931 9.18075L4.67309 9.17074ZM13.8492 7.69075V8.92074C13.8492 10.5307 13.5289 11.8607 12.6183 12.7707C11.7077 13.6807 10.3769 14.0007 8.76579 14.0007H5.08336C3.4723 14.0007 2.14142 13.6807 1.23081 12.7707C0.320212 11.8607 0 10.5307 0 8.92074V5.24075C0 3.63074 0.320212 2.30075 1.23081 1.39075C2.14142 0.480745 3.46229 0.150745 5.07335 0.150745H6.30417C6.74446 0.150745 7.09469 0.500745 7.09469 0.940745C7.09469 1.38075 6.74446 1.73075 6.30417 1.73075H5.07335C3.61239 1.73075 2.80185 2.03075 2.33154 2.50075C1.86123 2.97075 1.56103 3.78075 1.56103 5.24075V8.92074C1.56103 10.3807 1.86123 11.1907 2.33154 11.6607C2.80185 12.1307 3.61239 12.4307 5.07335 12.4307H8.75579C10.2168 12.4307 11.0273 12.1307 11.4976 11.6607C11.9679 11.1907 12.2681 10.3807 12.2681 8.92074V7.69075C12.2681 7.25075 12.6183 6.90075 13.0586 6.90075C13.4989 6.90075 13.8492 7.25075 13.8492 7.69075Z" />
</svg>
