<svg viewBox="0 0 14 16" xmlns="http://www.w3.org/2000/svg">
    <path d="M6.99027 8.73C9.39902 8.73 11.348 6.78 11.348 4.37C11.348 1.96 9.39902 0 6.99027 0C4.58152 0 2.62254 1.95 2.62254 4.36C2.62254 6.77 4.57153 8.72 6.98028 8.72L6.99027 8.73ZM6.99027 1.45C8.59943 1.45 9.89876 2.75 9.89876 4.36C9.89876 5.97 8.59943 7.27 6.99027 7.27C5.38111 7.27 4.08178 5.97 4.08178 4.36C4.08178 2.75 5.38111 1.45 6.99027 1.45ZM13.4569 10.49C13.0671 10.1 12.6473 9.9 12.1876 9.95C11.7578 9.99 11.418 10.25 11.1681 10.5L8.59943 13.07C8.49949 13.17 8.42952 13.29 8.36955 13.39C8.31958 13.5 8.26961 13.63 8.23962 13.76L8.09969 14.75C8.05972 15.06 8.13967 15.37 8.35956 15.59C8.57944 15.81 8.88928 15.89 9.19912 15.85L10.1786 15.71C10.3085 15.69 10.4385 15.64 10.5484 15.58C10.6484 15.53 10.7783 15.45 10.8782 15.35L13.4469 12.78C13.6968 12.53 13.9566 12.19 13.9966 11.76C14.0466 11.3 13.8367 10.87 13.4469 10.48L13.4569 10.49ZM10.1886 14.68C10.1886 14.68 10.1886 14.69 10.1786 14.7C10.1686 14.7 10.1486 14.72 10.1286 14.73C10.1086 14.74 10.0887 14.75 10.0687 14.76H10.0487L9.06919 14.9L9.20912 13.92C9.20912 13.92 9.20912 13.91 9.20912 13.89C9.20912 13.87 9.21911 13.85 9.2391 13.83C9.2491 13.81 9.25909 13.79 9.26909 13.78C9.26909 13.78 9.26909 13.77 9.27908 13.76L10.1886 12.85C10.3885 13.25 10.7283 13.57 11.1381 13.75L10.2086 14.68H10.1886ZM12.7673 12.11L11.8477 13.03C11.7878 12.98 11.7178 12.93 11.6379 12.91C11.308 12.82 11.0582 12.57 10.9682 12.24C10.9582 12.2 10.9382 12.15 10.9182 12.12L11.8477 11.19C12.0376 11 12.1776 10.93 12.2775 10.92C12.3475 10.92 12.5074 10.92 12.7673 11.19C13.0271 11.45 13.0471 11.61 13.0371 11.69C13.0371 11.79 12.9572 11.93 12.7673 12.12V12.11ZM8.92926 11.19C8.31958 11.01 7.66992 10.91 6.98028 10.91C3.79194 10.91 1.46315 12.99 1.46315 15.27C1.46315 15.67 1.13332 16 0.733527 16C0.333735 16 0.00390625 15.67 0.00390625 15.27C0.00390625 11.92 3.27221 9.45 6.97028 9.45C7.79985 9.45 8.58944 9.57 9.33905 9.79C9.71885 9.91 9.93874 10.31 9.82879 10.7C9.70886 11.08 9.30906 11.3 8.91927 11.19H8.92926Z" />
</svg>
