<svg viewBox="0 0 20 16" xmlns="http://www.w3.org/2000/svg">
    <path fill-rule="evenodd" clip-rule="evenodd" d="M4.99096 1C4.99096 0.734784 4.88548 0.48043 4.69773 0.292893C4.50999 0.105357 4.25535 0 3.98983 0C3.72432 0 3.46968 0.105357 3.28193 0.292893C3.09418 0.48043 2.98871 0.734784 2.98871 1V12.586L1.69426 11.293C1.50472 11.1152 1.25337 11.0181 0.99339 11.0221C0.733413 11.0261 0.485205 11.131 0.301286 11.3146C0.117367 11.4982 0.0121661 11.746 0.00794462 12.0057C0.00372309 12.2654 0.100812 12.5166 0.278666 12.706L3.28204 15.706C3.46978 15.8935 3.72437 15.9988 3.98983 15.9988C4.25529 15.9988 4.50989 15.8935 4.69763 15.706L7.701 12.706C7.88336 12.5174 7.98427 12.2648 7.98199 12.0026C7.97971 11.7404 7.87442 11.4896 7.6888 11.3042C7.50319 11.1188 7.25209 11.0136 6.9896 11.0113C6.72711 11.009 6.47422 11.1098 6.28541 11.292L4.99096 12.586V1ZM10.9977 2C10.7322 2 10.4775 2.10536 10.2898 2.29289C10.102 2.48043 9.99657 2.73478 9.99657 3C9.99657 3.26522 10.102 3.51957 10.2898 3.70711C10.4775 3.89464 10.7322 4 10.9977 4H19.0067C19.2722 4 19.5268 3.89464 19.7146 3.70711C19.9023 3.51957 20.0078 3.26522 20.0078 3C20.0078 2.73478 19.9023 2.48043 19.7146 2.29289C19.5268 2.10536 19.2722 2 19.0067 2H10.9977ZM10.9977 7C10.7322 7 10.4775 7.10536 10.2898 7.29289C10.102 7.48043 9.99657 7.73478 9.99657 8C9.99657 8.26522 10.102 8.51957 10.2898 8.70711C10.4775 8.89464 10.7322 9 10.9977 9H15.0022C15.2677 9 15.5223 8.89464 15.7101 8.70711C15.8978 8.51957 16.0033 8.26522 16.0033 8C16.0033 7.73478 15.8978 7.48043 15.7101 7.29289C15.5223 7.10536 15.2677 7 15.0022 7H10.9977ZM10.9977 12C10.7322 12 10.4775 12.1054 10.2898 12.2929C10.102 12.4804 9.99657 12.7348 9.99657 13C9.99657 13.2652 10.102 13.5196 10.2898 13.7071C10.4775 13.8946 10.7322 14 10.9977 14H11.9988C12.2643 14 12.519 13.8946 12.7067 13.7071C12.8945 13.5196 12.9999 13.2652 12.9999 13C12.9999 12.7348 12.8945 12.4804 12.7067 12.2929C12.519 12.1054 12.2643 12 11.9988 12H10.9977Z" />
</svg>
