<svg viewBox="0 0 12 7" xmlns="http://www.w3.org/2000/svg">
    <path d="M10.2846 0.304763C10.3769 0.209417 10.4872 0.133366 10.6092 0.0810471C10.7312 0.0287283 10.8624 0.00118952 10.9952 3.7692e-05C11.128 -0.00111414 11.2597 0.0241438 11.3826 0.0743381C11.5055 0.124532 11.6171 0.198658 11.711 0.292389C11.8049 0.38612 11.8792 0.49758 11.9294 0.620264C11.9797 0.742949 12.005 0.874402 12.0039 1.00695C12.0027 1.1395 11.9751 1.2705 11.9227 1.39229C11.8703 1.51408 11.7941 1.62424 11.6986 1.71633L6.69862 6.70772C6.51109 6.89487 6.25678 7 5.99162 7C5.72645 7 5.47215 6.89487 5.28462 6.70772L0.284618 1.71633C0.10246 1.52805 0.00166563 1.27588 0.00394405 1.01414C0.00622247 0.752392 0.111391 0.502012 0.2968 0.316923C0.482208 0.131834 0.73302 0.0268461 0.995217 0.0245716C1.25741 0.0222971 1.51002 0.122918 1.69862 0.304763L5.99162 4.59037L10.2846 0.304763Z" />
</svg>
