<svg viewBox="0 0 14 16" xmlns="http://www.w3.org/2000/svg">
    <path d="M13.94 2.63C13.9 2.54 13.84 2.46 13.77 2.4C13.62 2.26 13.42 2.19 13.22 2.19H10.11V0.73C10.11 0.63 10.09 0.54 10.05 0.45C10.01 0.36 9.95 0.28 9.88 0.22C9.73 0.08 9.54 0 9.33 0H4.66C4.46 0 4.26 0.08 4.11 0.21C4.04 0.28 3.98 0.36 3.94 0.44C3.9 0.53 3.88 0.62 3.88 0.72V2.18H0.78C0.58 2.18 0.38 2.26 0.23 2.39C0.16 2.46 0.1 2.54 0.06 2.62C0.02 2.71 0 2.8 0 2.9C0 3 0.02 3.09 0.06 3.18C0.1 3.27 0.16 3.35 0.23 3.41C0.38 3.55 0.58 3.62 0.78 3.62H13.22C13.42 3.62 13.62 3.54 13.77 3.41C13.84 3.34 13.9 3.26 13.94 3.18C13.98 3.09 14 3 14 2.9C14 2.8 13.98 2.71 13.94 2.62V2.63ZM8.56 2.18H5.45V1.45H8.56V2.18ZM13.15 4.81C13.19 4.9 13.21 4.99 13.21 5.09V13.23C13.2 13.61 13.11 13.98 12.94 14.32C12.78 14.66 12.55 14.97 12.26 15.22C11.67 15.74 10.89 16.02 10.09 16H3.89C3.09 16.02 2.31 15.74 1.72 15.22C1.43 14.97 1.2 14.66 1.04 14.32C0.88 13.98 0.79 13.61 0.77 13.23V5.09C0.77 4.99 0.79 4.9 0.83 4.81C0.87 4.72 0.93 4.64 1 4.58C1.15 4.44 1.35 4.37 1.55 4.37C1.75 4.37 1.95 4.45 2.1 4.58C2.17 4.65 2.23 4.73 2.27 4.81C2.31 4.9 2.33 4.99 2.33 5.09V13.23C2.34 13.41 2.39 13.59 2.48 13.76C2.56 13.92 2.68 14.07 2.83 14.19C3.13 14.44 3.51 14.57 3.9 14.55H10.11C10.5 14.57 10.88 14.44 11.18 14.19C11.32 14.07 11.44 13.92 11.53 13.76C11.61 13.6 11.66 13.42 11.68 13.23V5.09C11.68 4.99 11.7 4.9 11.74 4.81C11.78 4.72 11.84 4.64 11.91 4.58C12.06 4.44 12.26 4.37 12.46 4.37C12.66 4.37 12.86 4.45 13.01 4.58C13.08 4.65 13.14 4.73 13.18 4.81H13.15ZM4.89 12.15C4.82 12.08 4.76 12 4.72 11.92C4.68 11.83 4.66 11.74 4.66 11.64V6.55C4.66 6.45 4.68 6.36 4.72 6.27C4.76 6.18 4.82 6.1 4.89 6.04C5.04 5.9 5.24 5.83 5.44 5.83C5.64 5.83 5.84 5.91 5.99 6.04C6.06 6.11 6.12 6.19 6.16 6.27C6.2 6.36 6.22 6.45 6.22 6.55V11.64C6.22 11.74 6.2 11.83 6.16 11.92C6.12 12.01 6.06 12.09 5.99 12.15C5.84 12.29 5.64 12.36 5.44 12.36C5.24 12.36 5.04 12.28 4.89 12.15ZM7.99 12.15C7.92 12.08 7.86 12 7.82 11.92C7.78 11.83 7.76 11.74 7.76 11.64V6.55C7.76 6.45 7.78 6.36 7.82 6.27C7.86 6.18 7.92 6.1 7.99 6.04C8.14 5.9 8.34 5.83 8.54 5.83C8.74 5.83 8.94 5.91 9.09 6.04C9.16 6.11 9.22 6.19 9.26 6.27C9.3 6.36 9.32 6.45 9.32 6.55V11.64C9.32 11.74 9.3 11.83 9.26 11.92C9.22 12.01 9.16 12.09 9.09 12.15C8.94 12.29 8.74 12.36 8.54 12.36C8.34 12.36 8.14 12.28 7.99 12.15Z" />
</svg>
