<svg viewBox="0 0 16 16" xmlns="http://www.w3.org/2000/svg">
    <path fill-rule="evenodd" clip-rule="evenodd" d="M6.13658 0.463592C7.29604 -0.154531 8.70396 -0.15453 9.86342 0.463592L14.0144 2.67655C15.2396 3.32971 16 4.57243 16 5.92157V10.0784C16 11.4276 15.2396 12.6703 14.0144 13.3235L9.86342 15.5364C8.70396 16.1545 7.29604 16.1545 6.13658 15.5364L1.98558 13.3235C0.7604 12.6703 0 11.4276 0 10.0784V5.92157C0 4.57243 0.760401 3.32971 1.98558 2.67655L6.13658 0.463592ZM9.21791 1.5877L13.3689 3.80066C13.7209 3.98829 14.0141 4.25036 14.2323 4.56005L11.8685 5.87933L5.44061 2.30286L6.78209 1.5877C7.5399 1.1837 8.4601 1.1837 9.21791 1.5877ZM4.17852 2.9757L2.63109 3.80066C2.30911 3.97231 2.03624 4.20626 1.82505 4.48198C1.84093 4.48929 1.85663 4.49726 1.87212 4.5059L8.10365 7.98061L10.5375 6.62224L4.43051 3.22437C4.32033 3.16307 4.23518 3.07603 4.17852 2.9757ZM1.34423 5.69587C1.33701 5.77046 1.33333 5.84576 1.33333 5.92157V10.0784C1.33333 10.9602 1.83032 11.7724 2.63109 12.1993L6.78209 14.4123C6.99053 14.5234 7.21125 14.604 7.4375 14.654V9.09348L1.34423 5.69587ZM8.77083 14.5988C8.92423 14.5512 9.074 14.489 9.21791 14.4123L13.3689 12.1993C14.1697 11.7724 14.6667 10.9602 14.6667 10.0784V5.92157C14.6667 5.88222 14.6657 5.843 14.6637 5.80395L12.4869 7.01887V9.21636C12.4869 9.57112 12.1884 9.85871 11.8203 9.85871C11.4521 9.85871 11.1536 9.57112 11.1536 9.21636V7.76304L8.77083 9.0929V14.5988Z" />
</svg>
