<svg viewBox="0 0 16 14" xmlns="http://www.w3.org/2000/svg">
    <path fill-rule="evenodd" clip-rule="evenodd" d="M0 4.6596C0 2.08755 2.13313 0 4.77091 0C6.02017 0 7.15377 0.469693 8.00035 1.23552C8.84887 0.469415 9.98608 0 11.2291 0C13.8669 0 16 2.08755 16 4.6596C16 7.36955 14.7061 9.50488 13.1732 11.0319C11.6504 12.5488 9.84801 13.5121 8.68896 13.8974C8.46431 13.9738 8.21436 14 8 14C7.78565 14 7.53571 13.9738 7.31106 13.8974C6.15202 13.5121 4.34961 12.5488 2.82681 11.0319C1.29389 9.50488 0 7.36955 0 4.6596ZM4.77091 1.41414C2.94324 1.41414 1.45455 2.86194 1.45455 4.6596C1.45455 6.89914 2.51702 8.69865 3.86774 10.0441C5.22723 11.3984 6.83389 12.2448 7.78405 12.5601L7.79115 12.5625C7.81274 12.5699 7.88836 12.5859 8 12.5859C8.11164 12.5859 8.18727 12.5699 8.20886 12.5625L8.21593 12.5601C9.1661 12.2447 10.7728 11.3984 12.1323 10.0441C13.483 8.69865 14.5455 6.89914 14.5455 4.6596C14.5455 2.86194 13.0568 1.41414 11.2291 1.41414C10.153 1.41414 9.18739 1.9224 8.58387 2.71248C8.44667 2.89209 8.23012 2.99798 8 2.99798C7.76988 2.99798 7.55333 2.89209 7.41613 2.71248C6.81217 1.92182 5.85355 1.41414 4.77091 1.41414Z" />
</svg>
