<svg viewBox="0 0 16 16" xmlns="http://www.w3.org/2000/svg">
    <path fill-rule="evenodd" clip-rule="evenodd" d="M13.0771 5.93018V5.07413C13.0771 3.82264 12.8946 2.52507 12.1026 1.54191C11.2849 0.526717 9.94888 0 8.00301 0C6.05714 0 4.72117 0.526717 3.90341 1.54191C3.11145 2.52507 2.92888 3.82264 2.92888 5.07413V5.93035C2.11369 6.03994 1.43584 6.28429 0.93615 6.78398C0.169536 7.55059 0.00390625 8.73656 0.00390625 10.1945V11.6573C0.00390625 13.1152 0.169536 14.3011 0.93615 15.0678C1.70276 15.8344 2.88873 16 4.34664 16H11.6607C13.1186 16 14.3046 15.8344 15.0712 15.0678C15.8378 14.3011 16.0034 13.1152 16.0034 11.6573V10.1945C16.0034 8.73656 15.8378 7.55059 15.0712 6.78398C14.5712 6.28403 13.8929 6.03968 13.0771 5.93018ZM4.97142 2.40222C4.48343 3.00803 4.3003 3.90468 4.3003 5.07413V5.85179C4.31571 5.85175 4.33116 5.85173 4.34664 5.85173H11.6607C11.6757 5.85173 11.6907 5.85175 11.7057 5.85179V5.07413C11.7057 3.90468 11.5226 3.00803 11.0346 2.40222C10.5724 1.82844 9.71416 1.37142 8.00301 1.37142C6.29186 1.37142 5.43362 1.82844 4.97142 2.40222ZM1.37532 10.1945C1.37532 8.72675 1.57539 8.08421 1.90589 7.75372C2.23638 7.42322 2.87893 7.22315 4.34664 7.22315H11.6607C13.1284 7.22315 13.7709 7.42322 14.1014 7.75372C14.4319 8.08421 14.632 8.72675 14.632 10.1945V11.6573C14.632 13.125 14.4319 13.7675 14.1014 14.098C13.7709 14.4285 13.1284 14.6286 11.6607 14.6286H4.34664C2.87893 14.6286 2.23638 14.4285 1.90589 14.098C1.57539 13.7675 1.37532 13.125 1.37532 11.6573V10.1945Z" />
</svg>
