<svg viewBox="0 0 14 16" xmlns="http://www.w3.org/2000/svg">
    <path fill-rule="evenodd" clip-rule="evenodd" d="M10.4734 7.99908C10.4734 8.53908 10.0434 8.96908 9.51335 8.96908C8.98335 8.96908 8.55335 8.53908 8.55335 7.99908C8.55335 7.45908 8.98335 7.02908 9.51335 7.02908C10.0434 7.02908 10.4734 7.45908 10.4734 7.99908ZM4.49335 7.02908C3.96335 7.02908 3.53335 7.45908 3.53335 7.99908C3.53335 8.53908 3.96335 8.96908 4.49335 8.96908C5.02335 8.96908 5.45335 8.53908 5.45335 7.99908C5.45335 7.45908 5.02335 7.02908 4.49335 7.02908ZM13.9634 8.38908L13.4234 12.7591C13.3434 13.5191 13.1534 14.3891 12.4434 15.0491C11.7434 15.6991 10.6734 15.9991 9.15335 15.9991H4.84335C3.32335 15.9991 2.26335 15.6991 1.55335 15.0491C0.843351 14.3991 0.653351 13.5191 0.573351 12.7591L0.0433511 8.38908C-0.0566489 7.44908 -0.0066489 6.37908 0.673351 5.55908C1.19335 4.92908 1.99335 4.55908 3.05335 4.41908V4.13908C3.05335 2.16908 4.59335 0.209081 6.62335 0.0190811C8.97335 -0.210919 10.9534 1.66908 10.9534 3.99908V4.41908C12.0134 4.55908 12.8134 4.92908 13.3334 5.55908C14.0134 6.37908 14.0634 7.43908 13.9634 8.38908ZM4.49335 4.35908H9.52335V3.99908C9.52335 2.50908 8.26335 1.31908 6.76335 1.45908C5.55335 1.56908 4.50335 2.82908 4.50335 4.12908V4.34908L4.49335 4.35908ZM12.2334 6.49908C11.9534 6.15908 11.3234 5.80908 9.87335 5.80908H4.13335C2.68335 5.80908 2.05335 6.15908 1.77335 6.49908C1.48335 6.84908 1.38335 7.39908 1.47335 8.21908L2.01335 12.5791C2.08335 13.2591 2.22335 13.6791 2.53335 13.9691C2.85335 14.2591 3.48335 14.5391 4.85335 14.5391H9.16335C10.5334 14.5391 11.1634 14.2591 11.4834 13.9691C11.7934 13.6791 11.9334 13.2591 12.0034 12.5991L12.5434 8.22908C12.6334 7.39908 12.5334 6.84908 12.2434 6.50908L12.2334 6.49908Z" />
</svg>
