<svg viewBox="0 0 20 16" xmlns="http://www.w3.org/2000/svg">
    <path fill-rule="evenodd" clip-rule="evenodd" d="M4.99823 15.0003C4.99823 15.2655 4.89281 15.5199 4.70515 15.7074C4.51749 15.8949 4.26298 16.0003 3.99759 16.0003C3.7322 16.0003 3.47769 15.8949 3.29003 15.7074C3.10238 15.5199 2.99695 15.2655 2.99695 15.0003V3.41429L1.70413 4.70629C1.51553 4.88858 1.26284 4.98956 1.00047 4.98747C0.738103 4.98538 0.487053 4.88039 0.301394 4.69511C0.115734 4.50983 0.0103202 4.25909 0.00785667 3.99689C0.00539311 3.73469 0.106077 3.48202 0.288222 3.29329L3.29014 0.293287C3.38307 0.20031 3.49343 0.126551 3.61491 0.0762267C3.73638 0.0259024 3.86659 0 3.99809 0C4.12959 0 4.2598 0.0259024 4.38128 0.0762267C4.50275 0.126551 4.61311 0.20031 4.70604 0.293287L7.70796 3.29329C7.81214 3.38298 7.8967 3.49318 7.95636 3.61699C8.01603 3.7408 8.04952 3.87557 8.05474 4.0129C8.05997 4.15022 8.03682 4.28714 7.98673 4.41512C7.93664 4.54311 7.8607 4.6594 7.76364 4.75674C7.66658 4.85409 7.55048 4.93039 7.4226 4.9809C7.29471 5.03141 7.15778 5.05503 7.02035 5.0503C6.88293 5.04556 6.74795 5.01257 6.62385 4.95338C6.49975 4.89419 6.38918 4.81008 6.29906 4.70629L4.99823 3.41429V15.0003ZM11.0021 14.0003C10.7367 14.0003 10.4822 13.8949 10.2945 13.7074C10.1068 13.5199 10.0014 13.2655 10.0014 13.0003C10.0014 12.7351 10.1068 12.4807 10.2945 12.2932C10.4822 12.1056 10.7367 12.0003 11.0021 12.0003H12.0027C12.2681 12.0003 12.5226 12.1056 12.7103 12.2932C12.8979 12.4807 13.0033 12.7351 13.0033 13.0003C13.0033 13.2655 12.8979 13.5199 12.7103 13.7074C12.5226 13.8949 12.2681 14.0003 12.0027 14.0003H11.0021ZM11.0021 9.00029C10.7367 9.00029 10.4822 8.89493 10.2945 8.70739C10.1068 8.51986 10.0014 8.2655 10.0014 8.00029C10.0014 7.73507 10.1068 7.48072 10.2945 7.29318C10.4822 7.10564 10.7367 7.00029 11.0021 7.00029H15.0046C15.27 7.00029 15.5245 7.10564 15.7122 7.29318C15.8998 7.48072 16.0053 7.73507 16.0053 8.00029C16.0053 8.2655 15.8998 8.51986 15.7122 8.70739C15.5245 8.89493 15.27 9.00029 15.0046 9.00029H11.0021ZM11.0021 4.00029C10.7367 4.00029 10.4822 3.89493 10.2945 3.70739C10.1068 3.51986 10.0014 3.2655 10.0014 3.00029C10.0014 2.73507 10.1068 2.48072 10.2945 2.29318C10.4822 2.10564 10.7367 2.00029 11.0021 2.00029H19.0072C19.2726 2.00029 19.5271 2.10564 19.7147 2.29318C19.9024 2.48072 20.0078 2.73507 20.0078 3.00029C20.0078 3.2655 19.9024 3.51986 19.7147 3.70739C19.5271 3.89493 19.2726 4.00029 19.0072 4.00029H11.0021Z" />
</svg>
