<svg viewBox="0 0 22 20" xmlns="http://www.w3.org/2000/svg">
    <path d="M0 2.75C0 2.34 0.34 2 0.75 2H11V0.75C11 0.34 11.34 0 11.75 0C12.16 0 12.5 0.34 12.5 0.75V4.75C12.5 5.16 12.16 5.5 11.75 5.5C11.34 5.5 11 5.16 11 4.75V3.5H0.75C0.34 3.5 0 3.16 0 2.75ZM15.75 3.5H20.75C21.16 3.5 21.5 3.16 21.5 2.75C21.5 2.34 21.16 2 20.75 2H15.75C15.34 2 15 2.34 15 2.75C15 3.16 15.34 3.5 15.75 3.5ZM0.75 10.5H5.75C6.16 10.5 6.5 10.16 6.5 9.75C6.5 9.34 6.16 9 5.75 9H0.75C0.34 9 0 9.34 0 9.75C0 10.16 0.34 10.5 0.75 10.5ZM20.75 16H15.75C15.34 16 15 16.34 15 16.75C15 17.16 15.34 17.5 15.75 17.5H20.75C21.16 17.5 21.5 17.16 21.5 16.75C21.5 16.34 21.16 16 20.75 16ZM11.75 14C11.34 14 11 14.34 11 14.75V16H0.75C0.34 16 0 16.34 0 16.75C0 17.16 0.34 17.5 0.75 17.5H11V18.75C11 19.16 11.34 19.5 11.75 19.5C12.16 19.5 12.5 19.16 12.5 18.75V14.75C12.5 14.34 12.16 14 11.75 14ZM20.75 9H10.5V7.75C10.5 7.34 10.16 7 9.75 7C9.34 7 9 7.34 9 7.75V11.75C9 12.16 9.34 12.5 9.75 12.5C10.16 12.5 10.5 12.16 10.5 11.75V10.5H20.75C21.16 10.5 21.5 10.16 21.5 9.75C21.5 9.34 21.16 9 20.75 9Z" />
</svg>
