<svg viewBox="0 0 16 16" xmlns="http://www.w3.org/2000/svg">
    <path fill-rule="evenodd" clip-rule="evenodd" d="M9.86762 4.45945C8.94762 4.45945 8.19762 5.20978 8.19762 6.13018C8.19762 7.05058 8.94762 7.80091 9.86762 7.80091C10.7876 7.80091 11.5376 7.05058 11.5376 6.13018C11.5376 5.20978 10.7876 4.45945 9.86762 4.45945ZM9.86762 6.69042C9.55762 6.69042 9.30762 6.44032 9.30762 6.13018C9.30762 5.82004 9.55762 5.56994 9.86762 5.56994C10.1776 5.56994 10.4276 5.82004 10.4276 6.13018C10.4276 6.44032 10.1776 6.69042 9.86762 6.69042ZM14.1876 1.80829C11.7676 -0.602763 7.84762 -0.602763 5.43762 1.80829C3.83762 3.39899 3.29762 5.65997 3.80762 7.70087L0.537625 10.9723C0.337625 11.1824 0.197625 11.4525 0.117625 11.7026C0.0276247 11.9627 -0.0223753 12.2629 0.0276247 12.553L0.247625 14.1737C0.307625 14.5839 0.517625 14.954 0.787625 15.2242C1.05762 15.4943 1.42762 15.7144 1.83762 15.7644L3.45762 15.9845C3.73762 16.0245 4.03762 15.9845 4.29762 15.8944C4.55762 15.8144 4.82762 15.6643 5.03762 15.4543L8.30762 12.1928C10.3476 12.7031 12.5976 12.1628 14.1976 10.5721C16.6076 8.16107 16.6076 4.21935 14.1976 1.80829H14.1876ZM13.4076 9.78178C12.0276 11.1524 10.0476 11.5826 8.31763 11.0323C8.11763 10.9723 7.90762 11.0323 7.75762 11.1724L5.91762 13.0032L4.59762 11.6826C4.37762 11.4625 4.02762 11.4625 3.80762 11.6826C3.58762 11.9027 3.58762 12.2529 3.80762 12.473L5.12762 13.7935L4.24762 14.6739C4.19762 14.7239 4.10762 14.794 3.95762 14.834C3.81762 14.884 3.68762 14.884 3.61762 14.874L1.98762 14.6539C1.86762 14.6339 1.70762 14.5639 1.57762 14.4238C1.44762 14.2937 1.36762 14.1337 1.34762 14.0036L1.12762 12.3829C1.12762 12.3129 1.12762 12.1828 1.17762 12.0428C1.22762 11.9027 1.28762 11.7927 1.33762 11.7426L4.82762 8.25111C4.97762 8.10104 5.02762 7.89095 4.96762 7.69086C4.42762 5.9401 4.84762 3.96924 6.22762 2.58863C8.20762 0.607766 11.4176 0.607766 13.3976 2.58863C15.3776 4.5695 15.3776 7.79091 13.3976 9.77177L13.4076 9.78178Z" />
</svg>
