<svg viewBox="0 0 16 16" xmlns="http://www.w3.org/2000/svg">
    <path d="M10.36 7.78C10.36 8.2 10.02 8.55 9.59 8.55H8.55V9.59C8.55 10.01 8.21 10.36 7.78 10.36C7.35 10.36 7.01 10.02 7.01 9.59V8.55H5.96C5.54 8.55 5.19 8.21 5.19 7.78C5.19 7.35 5.53 7.01 5.96 7.01H7.01V5.97C7.01 5.55 7.35 5.2 7.78 5.2C8.21 5.2 8.55 5.54 8.55 5.97V7.01H9.59C10.01 7.01 10.36 7.35 10.36 7.78ZM7.64 15.28C3.42 15.28 0 11.86 0 7.64C0 3.42 3.42 0 7.64 0C11.86 0 15.28 3.42 15.28 7.64C15.28 11.86 11.86 15.28 7.64 15.28ZM13.74 7.64C13.74 4.27 11.01 1.53 7.63 1.53C4.25 1.53 1.53 4.27 1.53 7.64C1.53 11.01 4.26 13.75 7.64 13.75C11.02 13.75 13.75 11.02 13.75 7.64H13.74ZM15.78 14.69L14.33 13.24C14.03 12.94 13.55 12.94 13.25 13.24C12.95 13.54 12.95 14.02 13.25 14.32L14.7 15.77C15 16.07 15.48 16.07 15.78 15.77C16.08 15.47 16.08 14.99 15.78 14.69Z" />
</svg>
