<svg viewBox="0 0 14 16" xmlns="http://www.w3.org/2000/svg">
    <path fill-rule="evenodd" clip-rule="evenodd" d="M7.00392 3.78C5.34312 3.78 4.00248 5.12 4.00248 6.78C4.00248 8.44 5.34312 9.78 7.00392 9.78C8.66472 9.78 10.0054 8.44 10.0054 6.78C10.0054 5.12 8.66472 3.78 7.00392 3.78ZM7.00392 8.31C6.15351 8.31 5.46318 7.62 5.46318 6.77C5.46318 5.92 6.15351 5.23 7.00392 5.23C7.85433 5.23 8.54466 5.92 8.54466 6.77C8.54466 7.62 7.85433 8.31 7.00392 8.31ZM13.8172 5.3C13.0068 1.75 9.97535 0 7.00392 0C4.0425 0 1.00103 1.75 0.200645 5.29C-0.729803 9.38 1.83143 12.77 3.87241 14.74C5.62326 16.42 8.38459 16.42 10.1254 14.74C12.1764 12.77 14.7376 9.39 13.8072 5.3H13.8172ZM9.12494 13.69C7.94437 14.83 6.07347 14.83 4.8829 13.69C2.91195 11.79 0.870968 8.91 1.61132 5.61C2.24163 2.85 4.59276 1.45 7.00392 1.45C9.42509 1.45 11.7662 2.85 12.3865 5.61C13.1369 8.91 11.0959 11.78 9.11494 13.68L9.12494 13.69Z" />
</svg>
