<svg viewBox="0 0 15 16" xmlns="http://www.w3.org/2000/svg">
    <path fill-rule="evenodd" clip-rule="evenodd" d="M9.27391 9.24578C9.27391 8.70544 9.72391 8.27517 10.2739 8.27517C10.8239 8.27517 11.2739 8.70544 11.2739 9.24578C11.2739 9.78612 10.8239 10.2164 10.2739 10.2164C9.72391 10.2164 9.27391 9.78612 9.27391 9.24578ZM10.2739 12.5078C10.8239 12.5078 11.2739 12.0775 11.2739 11.5372C11.2739 10.9969 10.8239 10.5666 10.2739 10.5666C9.72391 10.5666 9.27391 10.9969 9.27391 11.5372C9.27391 12.0775 9.72391 12.5078 10.2739 12.5078ZM7.50391 10.2164C8.05391 10.2164 8.50391 9.78612 8.50391 9.24578C8.50391 8.70544 8.05391 8.27517 7.50391 8.27517C6.95391 8.27517 6.50391 8.70544 6.50391 9.24578C6.50391 9.78612 6.95391 10.2164 7.50391 10.2164ZM7.50391 12.5078C8.05391 12.5078 8.50391 12.0775 8.50391 11.5372C8.50391 10.9969 8.05391 10.5666 7.50391 10.5666C6.95391 10.5666 6.50391 10.9969 6.50391 11.5372C6.50391 12.0775 6.95391 12.5078 7.50391 12.5078ZM4.72391 10.2164C5.27391 10.2164 5.72391 9.78612 5.72391 9.24578C5.72391 8.70544 5.27391 8.27517 4.72391 8.27517C4.17391 8.27517 3.72391 8.70544 3.72391 9.24578C3.72391 9.78612 4.17391 10.2164 4.72391 10.2164ZM4.72391 12.5078C5.27391 12.5078 5.72391 12.0775 5.72391 11.5372C5.72391 10.9969 5.27391 10.5666 4.72391 10.5666C4.17391 10.5666 3.72391 10.9969 3.72391 11.5372C3.72391 12.0775 4.17391 12.5078 4.72391 12.5078ZM15.0039 5.45341V11.6373C15.0039 12.838 14.6939 13.9587 13.9139 14.7692C13.1239 15.5997 11.9639 16 10.5039 16H4.50391C3.04391 16 1.88391 15.5897 1.09391 14.7692C0.313906 13.9487 0.00390625 12.838 0.00390625 11.6373V5.45341C0.00390625 4.25266 0.313906 3.13196 1.09391 2.32145C1.74391 1.64103 2.64391 1.25078 3.75391 1.13071V0.730457C3.75391 0.330206 4.09391 0 4.50391 0C4.91391 0 5.25391 0.330206 5.25391 0.730457V1.09068H9.75391V0.730457C9.75391 0.330206 10.0939 0 10.5039 0C10.9139 0 11.2539 0.330206 11.2539 0.730457V1.13071C12.3639 1.25078 13.2639 1.65103 13.9139 2.32145C14.6939 3.14196 15.0039 4.25266 15.0039 5.45341ZM1.51391 5.16323H13.4939C13.4439 4.33271 13.2039 3.73233 12.8139 3.32208C12.4839 2.98186 11.9939 2.71169 11.2539 2.60163V2.91182C11.2539 3.31207 10.9139 3.64228 10.5039 3.64228C10.0939 3.64228 9.75391 3.31207 9.75391 2.91182V2.55159H5.25391V2.91182C5.25391 3.31207 4.91391 3.64228 4.50391 3.64228C4.09391 3.64228 3.75391 3.31207 3.75391 2.91182V2.60163C3.01391 2.71169 2.52391 2.97186 2.19391 3.32208C1.80391 3.73233 1.55391 4.34271 1.51391 5.16323ZM13.5039 6.61413H1.50391V11.6373C1.50391 12.6179 1.75391 13.3183 2.19391 13.7786C2.62391 14.2289 3.33391 14.5491 4.50391 14.5491H10.5039C11.6739 14.5491 12.3839 14.2289 12.8139 13.7786C13.2539 13.3183 13.5039 12.6179 13.5039 11.6373V6.61413Z" />
</svg>
