<svg viewBox="0 0 16 16" xmlns="http://www.w3.org/2000/svg">
    <path fill-rule="evenodd" clip-rule="evenodd" d="M15.8238 11.77V11.75C15.6837 11.43 15.4536 11.18 15.1734 10.98L12.7619 9.27C12.5517 9.12 12.3416 9 12.1215 8.91C11.8813 8.81 11.6512 8.76 11.401 8.76C11.0808 8.76 10.7906 8.85 10.5205 9.01C10.2703 9.14 10.0502 9.33 9.84005 9.53L9.4298 9.93C9.24968 9.82 9.01954 9.66 8.71935 9.4C8.34912 9.09 7.9889 8.75 7.60866 8.37C7.24843 8 6.90822 7.63 6.58802 7.26C6.33786 6.96 6.16776 6.73 6.05769 6.56L6.46795 6.13C6.66807 5.93 6.84818 5.71 6.98827 5.47C7.14837 5.2 7.23843 4.9 7.23843 4.59C7.23843 4.33 7.16838 4.08 7.07833 3.87C6.98827 3.65 6.85819 3.43 6.7081 3.22L5.01704 0.85C4.80691 0.55 4.53674 0.34 4.24656 0.2C3.95638 0.06 3.64618 0 3.34599 0C2.58552 0 1.89509 0.32 1.32473 0.89C0.864444 1.32 0.534238 1.81 0.3141 2.36C0.103969 2.89 0.00390625 3.45 0.00390625 4.03C0.00390625 4.9 0.204031 5.79 0.584269 6.69C0.9545 7.57 1.46482 8.45 2.09521 9.31C2.72561 10.17 3.42605 10.99 4.19653 11.78C4.97701 12.56 5.79753 13.26 6.66807 13.89C7.53862 14.52 8.42917 15.03 9.31973 15.41C10.2303 15.8 11.1209 16 11.9814 16C12.5818 16 13.1521 15.89 13.6825 15.67C14.2428 15.44 14.7231 15.09 15.1434 14.63C15.4035 14.34 15.6037 14.03 15.7537 13.71C15.9239 13.35 16.0039 12.98 16.0039 12.61C16.0039 12.29 15.9339 12.02 15.8338 11.77H15.8238ZM14.4229 13.09C14.3329 13.29 14.2028 13.48 14.0427 13.65C13.7525 13.97 13.4423 14.19 13.1121 14.32C12.7719 14.47 12.3916 14.54 11.9714 14.54C11.341 14.54 10.6506 14.39 9.88008 14.07C9.09959 13.74 8.3091 13.29 7.5186 12.71C6.7081 12.12 5.94762 11.47 5.21716 10.75C4.49671 10.02 3.8363 9.26 3.25594 8.46C2.68558 7.67 2.2353 6.89 1.90509 6.12C1.58489 5.36 1.4348 4.67 1.4348 4.03C1.4348 3.62 1.50484 3.24 1.64493 2.9C1.77501 2.56 1.99515 2.24 2.30534 1.94V1.93C2.66557 1.58 2.99578 1.46 3.30597 1.46C3.40603 1.46 3.50609 1.48 3.57614 1.52H3.58614C3.66619 1.56 3.72623 1.61 3.77626 1.69L5.46732 4.08C5.56738 4.23 5.63743 4.35 5.67745 4.44C5.71748 4.54 5.71748 4.59 5.71748 4.61C5.71748 4.64 5.71748 4.68 5.66745 4.75V4.77C5.61741 4.87 5.51735 4.99 5.37726 5.13L4.82692 5.71C4.60678 5.94 4.50672 6.22 4.50672 6.51C4.50672 6.64 4.52673 6.75 4.54675 6.85V6.89L4.56676 6.93C4.58677 6.97 4.59678 7.01 4.60678 7.03C4.60678 7.04 4.60678 7.05 4.60678 7.05L4.6268 7.11L4.65681 7.17C4.82692 7.47 5.08708 7.83 5.41729 8.22C5.7575 8.61 6.11773 9.01 6.50797 9.41C6.90822 9.8 7.29847 10.17 7.70872 10.51C8.10897 10.85 8.4692 11.1 8.77939 11.27L8.80941 11.29H8.84943C8.84943 11.29 8.84943 11.31 8.87945 11.32C8.87945 11.32 8.92948 11.35 8.9595 11.36H8.97952L8.99953 11.37C9.15963 11.43 9.31973 11.45 9.4398 11.45C9.77001 11.45 10.0402 11.32 10.2503 11.12L10.8007 10.58C10.9507 10.42 11.0708 10.34 11.1509 10.3H11.1709L11.1909 10.28C11.2609 10.24 11.301 10.23 11.331 10.23C11.361 10.23 11.411 10.23 11.5011 10.27C11.6012 10.31 11.7212 10.38 11.8713 10.48L14.2728 12.18C14.3629 12.25 14.4029 12.3 14.4129 12.34C14.4529 12.45 14.4729 12.53 14.4729 12.62C14.4729 12.77 14.4429 12.94 14.3629 13.1L14.4229 13.09Z" />
</svg>
