<svg viewBox="0 0 16 14" xmlns="http://www.w3.org/2000/svg">
    <path fill-rule="evenodd" clip-rule="evenodd" d="M12.1977 4.33C12.4478 4.65 12.3978 5.11 12.0876 5.37L9.8062 7.21C8.79558 8.03 7.18459 8.03 6.17397 7.21L3.90257 5.37C3.59238 5.12 3.54235 4.65 3.79251 4.33C4.04266 4.01 4.50294 3.96 4.81313 4.22L7.08453 6.06C7.56482 6.45 8.42535 6.45 8.90565 6.06L11.187 4.22C11.4972 3.97 11.9575 4.02 12.2077 4.34L12.1977 4.33ZM16 4.42V9.58C16 11.01 15.5897 12.15 14.7692 12.93C13.9487 13.7 12.8381 14 11.6373 14H4.36286C3.16212 14 2.04143 13.7 1.23093 12.93C0.400424 12.15 0.000178698 11.01 0.000178698 9.58V4.42C-0.00982744 2.99 0.400424 1.85 1.22093 1.07C2.04143 0.3 3.15211 0 4.35285 0H11.6273C12.8281 0 13.9487 0.3 14.7592 1.07C15.5897 1.85 15.99 2.99 15.99 4.42H16ZM14.5491 4.42C14.5491 3.27 14.2289 2.57 13.7786 2.15C13.3184 1.72 12.6179 1.47 11.6373 1.47H4.36286C3.38225 1.47 2.68182 1.72 2.22154 2.15C1.77127 2.57 1.45107 3.27 1.45107 4.42V9.58C1.45107 10.73 1.77127 11.43 2.22154 11.85C2.68182 12.28 3.38225 12.53 4.36286 12.53H11.6373C12.6179 12.53 13.3184 12.28 13.7786 11.85C14.2289 11.43 14.5491 10.73 14.5491 9.58V4.42Z" />
</svg>
