<svg viewBox="0 0 16 16" xmlns="http://www.w3.org/2000/svg">
    <path fill-rule="evenodd" clip-rule="evenodd" d="M7.29 8.8V4.8C7.29 4.41 7.61 4.09 8 4.09C8.39 4.09 8.71 4.41 8.71 4.8V8.8C8.71 9.19 8.39 9.51 8 9.51C7.61 9.51 7.29 9.19 7.29 8.8ZM8 10.26C7.48 10.26 7.06 10.68 7.06 11.2C7.06 11.72 7.48 12.14 8 12.14C8.52 12.14 8.94 11.72 8.94 11.2C8.94 10.68 8.52 10.26 8 10.26ZM16 8C16 12.4 12.4 16 8 16C3.6 16 0 12.4 0 8C0 3.6 3.6 0 8 0C12.4 0 16 3.6 16 8ZM14.59 8C14.59 4.38 11.62 1.41 8 1.41C4.38 1.41 1.41 4.38 1.41 8C1.41 11.62 4.38 14.59 8 14.59C11.62 14.59 14.59 11.62 14.59 8Z" />
</svg>
