<svg viewBox="0 0 14 16" xmlns="http://www.w3.org/2000/svg">
    <path d="M7.00391 8.73C9.42391 8.73 11.3839 6.78 11.3839 4.37C11.3839 1.96 9.42391 0 7.00391 0C4.58391 0 2.62391 1.95 2.62391 4.36C2.62391 6.77 4.58391 8.72 7.00391 8.72V8.73ZM7.00391 1.45C8.61391 1.45 9.92391 2.75 9.92391 4.36C9.92391 5.97 8.61391 7.27 7.00391 7.27C5.39391 7.27 4.08391 5.97 4.08391 4.36C4.08391 2.75 5.39391 1.45 7.00391 1.45ZM14.0039 15.27C14.0039 15.67 13.6739 16 13.2739 16C12.8739 16 12.5439 15.67 12.5439 15.27C12.5439 12.99 10.2039 10.91 7.00391 10.91C3.80391 10.91 1.46391 12.99 1.46391 15.27C1.46391 15.67 1.13391 16 0.733906 16C0.333906 16 0.00390625 15.67 0.00390625 15.27C0.00390625 11.92 3.28391 9.45 7.00391 9.45C10.7239 9.45 14.0039 11.92 14.0039 15.27Z" />
</svg>
