<svg viewBox="0 0 16 16" xmlns="http://www.w3.org/2000/svg">
    <path d="M7.64 0C3.42 0 0 3.42 0 7.64C0 11.86 3.42 15.28 7.64 15.28C11.86 15.28 15.28 11.86 15.28 7.64C15.28 3.42 11.85 0 7.64 0ZM7.64 13.82C4.23 13.82 1.46 11.05 1.46 7.64C1.46 4.23 4.22 1.45 7.64 1.45C11.06 1.45 13.82 4.22 13.82 7.63C13.82 11.04 11.05 13.81 7.64 13.81V13.82ZM15.79 15.79C15.51 16.07 15.05 16.07 14.76 15.79L13.31 14.34C13.03 14.06 13.03 13.6 13.31 13.31C13.59 13.02 14.05 13.03 14.34 13.31L15.79 14.76C16.07 15.04 16.07 15.5 15.79 15.79Z" />
</svg>
