<svg viewBox="0 0 16 16" xmlns="http://www.w3.org/2000/svg">
    <path d="M16.0064 5.49V10.5C16.0064 12.29 15.6564 13.71 14.6864 14.68C13.7164 15.64 12.2864 16 10.4964 16H10.3964C8.78641 16 7.46641 15.71 6.51641 14.95C5.54641 14.17 5.07641 13.01 4.93641 11.54C4.89641 11.16 5.17641 10.83 5.55641 10.8C5.93641 10.76 6.26641 11.04 6.30641 11.42C6.42641 12.68 6.79641 13.43 7.37641 13.89C7.97641 14.37 8.91641 14.64 10.3964 14.64H10.4964C12.1464 14.64 13.1264 14.31 13.7164 13.72C14.2964 13.14 14.6364 12.16 14.6364 10.51V5.5C14.6364 3.85 14.2964 2.87 13.7164 2.29C13.1364 1.71 12.1564 1.37 10.4964 1.37H10.3964C8.89641 1.37 7.95641 1.64 7.35641 2.13C6.77641 2.6 6.40641 3.36 6.29641 4.64C6.26641 5.02 5.93641 5.3 5.55641 5.26C5.17641 5.22 4.89641 4.9 4.93641 4.52C5.06641 3.03 5.52641 1.85 6.49641 1.06C7.45641 0.29 8.77641 0 10.3964 0H10.4964C12.2864 0 13.7164 0.35 14.6864 1.32C15.6564 2.28 16.0064 3.71 16.0064 5.5V5.49ZM2.34641 8.68H10.3164C10.6964 8.68 11.0064 8.37 11.0064 8C11.0064 7.63 10.6964 7.32 10.3164 7.32H2.34641L3.75641 5.91C4.02641 5.64 4.02641 5.21 3.75641 4.94C3.48641 4.67 3.05641 4.67 2.78641 4.94L0.206406 7.51C-0.0635937 7.78 -0.0635937 8.21 0.206406 8.48L2.78641 11.05C3.05641 11.32 3.48641 11.32 3.75641 11.05C4.02641 10.78 4.02641 10.35 3.75641 10.08L2.34641 8.67V8.68Z" />
</svg>
