<svg viewBox="0 0 16 16" xmlns="http://www.w3.org/2000/svg">
    <path fill-rule="evenodd" clip-rule="evenodd" d="M11.32 10.69C11.11 11.03 10.67 11.15 10.32 10.94L8.07 9.6C7.74 9.4 7.48 9.1 7.31 8.79C7.14 8.48 7.01 8.11 7.01 7.72V4.74C7.01 4.34 7.34 4.01 7.74 4.01C8.14 4.01 8.47 4.34 8.47 4.74V7.72C8.47 7.79 8.5 7.92 8.58 8.07C8.66 8.22 8.76 8.31 8.82 8.35L11.07 9.7C11.41 9.91 11.53 10.35 11.32 10.7V10.69ZM16 8C16 12.42 12.42 16 8 16C3.58 16 0 12.42 0 8C0 3.58 3.58 0 8 0C12.42 0 16 3.58 16 8ZM14.55 8C14.55 4.39 11.62 1.45 8 1.45C4.38 1.45 1.45 4.39 1.45 8C1.45 11.61 4.38 14.55 8 14.55C11.62 14.55 14.55 11.62 14.55 8Z" />
</svg>
