<svg viewBox="0 0 14 16" xmlns="http://www.w3.org/2000/svg">
    <path fill-rule="evenodd" clip-rule="evenodd" d="M11.8623 0H6.23833C6.23833 0 6.22832 0 6.21831 0H2.15543C0.944573 0 0.00390625 0.98884 0.00390625 2.23737V3.93538C0.00390625 4.28497 0.113984 4.66453 0.254084 4.98415C0.394183 5.30378 0.604332 5.63339 0.854509 5.89308L3.61647 8.81965C3.70653 8.93951 3.81661 9.12929 3.90667 9.34903C3.99674 9.57876 4.03677 9.78851 4.03677 9.92835V13.8438C4.03677 15.6017 5.97814 16.5306 7.35912 15.6816H7.36913L8.38985 15.0124C8.71008 14.8126 8.95025 14.493 9.10035 14.2033C9.26047 13.9037 9.37055 13.5341 9.37055 13.1745V9.99827C9.37055 9.80849 9.42058 9.56877 9.52065 9.32905C9.62072 9.08933 9.75082 8.91953 9.86089 8.81965C9.86089 8.81965 9.8709 8.81965 9.88091 8.80966L13.0431 6.00296C13.0431 6.00296 13.0632 5.98298 13.0732 5.97299C13.3233 5.7133 13.5535 5.36371 13.7136 5.00413C13.8737 4.64455 14.0038 4.21505 14.0038 3.78556V2.15747C14.0138 0.968863 13.0431 0 11.8623 0ZM1.84521 4.93421H1.8352C1.72513 4.81435 1.60504 4.62457 1.50497 4.41482C1.4049 4.19508 1.37488 4.01529 1.37488 3.92539V2.22739C1.37488 1.69801 1.75515 1.35841 2.16544 1.35841H4.99745L2.40561 5.52352L1.84521 4.92422V4.93421ZM12.6529 3.78556C12.6529 3.95536 12.5928 4.18509 12.4828 4.4348C12.3727 4.67451 12.2426 4.87428 12.1325 4.98415L9.00028 7.77088C8.68006 8.04056 8.43989 8.42012 8.27977 8.78969C8.11966 9.16924 8.01959 9.58875 8.01959 9.98828V13.1646C8.01959 13.2544 7.98957 13.4043 7.8995 13.5541C7.81945 13.7139 7.71938 13.8038 7.68935 13.8238C7.68935 13.8238 7.67935 13.8238 7.66934 13.8338L6.64862 14.493C6.11824 14.8226 5.41774 14.4231 5.41774 13.8138V9.89838C5.41774 9.51883 5.31767 9.13927 5.18758 8.80966C5.05749 8.48005 4.87736 8.16042 4.68723 7.9207C4.67722 7.90073 4.66721 7.89074 4.6472 7.88075L3.3863 6.55231L6.59858 1.36839H11.8623C12.2926 1.36839 12.6529 1.72797 12.6529 2.15747V3.78556Z" />
</svg>
